<svg preserveAspectRatio="none" width="100%" height="100%" overflow="visible" style="display: block;" viewBox="0 0 32 32" fill="none" xmlns="http://www.w3.org/2000/svg">
<g id="box">
<mask id="mask0_0_17" style="mask-type:alpha" maskUnits="userSpaceOnUse" x="0" y="0" width="32" height="32">
<rect id="Bounding box" width="32" height="32" fill="var(--fill-0, #D9D9D9)"/>
</mask>
<g mask="url(#mask0_0_17)">
<path id="box_2" d="M6.66667 10.6667V25.3333H25.3333V10.6667H21.3333V19.1667C21.3333 19.6778 21.1222 20.0611 20.7 20.3167C20.2778 20.5722 19.8444 20.5889 19.4 20.3667L16 18.6667L12.6 20.3667C12.1556 20.5889 11.7222 20.5722 11.3 20.3167C10.8778 20.0611 10.6667 19.6778 10.6667 19.1667V10.6667H6.66667ZM6.66667 28C5.93333 28 5.30556 27.7389 4.78333 27.2167C4.26111 26.6944 4 26.0667 4 25.3333V8.7C4 8.38889 4.05 8.08889 4.15 7.8C4.25 7.51111 4.4 7.24444 4.6 7L6.26667 4.96667C6.51111 4.65556 6.81667 4.41667 7.18333 4.25C7.55 4.08333 7.93333 4 8.33333 4H23.6667C24.0667 4 24.45 4.08333 24.8167 4.25C25.1833 4.41667 25.4889 4.65556 25.7333 4.96667L27.4 7C27.6 7.24444 27.75 7.51111 27.85 7.8C27.95 8.08889 28 8.38889 28 8.7V25.3333C28 26.0667 27.7389 26.6944 27.2167 27.2167C26.6944 27.7389 26.0667 28 25.3333 28H6.66667ZM7.2 8H24.8L23.6667 6.66667H8.33333L7.2 8ZM13.3333 10.6667V17L16 15.6667L18.6667 17V10.6667H13.3333Z" fill="var(--fill-0, #1C1B1F)"/>
</g>
</g>
</svg>
