<svg preserveAspectRatio="none" width="100%" height="100%" overflow="visible" style="display: block;" viewBox="0 0 32 32" fill="none" xmlns="http://www.w3.org/2000/svg">
<g id="box_add">
<mask id="mask0_0_29" style="mask-type:alpha" maskUnits="userSpaceOnUse" x="0" y="0" width="32" height="32">
<rect id="Bounding box" width="32" height="32" fill="var(--fill-0, #D9D9D9)"/>
</mask>
<g mask="url(#mask0_0_29)">
<path id="box_add_2" d="M6.66667 10.6667H17.9333H17.3333H17.8H6.66667ZM7.2 8H24.8L23.6667 6.66667H8.33333L7.2 8ZM13.3333 17L16 15.6667L18.6667 17V10.6667H13.3333V17ZM6.66667 28C5.93333 28 5.30556 27.7389 4.78333 27.2167C4.26111 26.6944 4 26.0667 4 25.3333V8.7C4 8.38889 4.05 8.08889 4.15 7.8C4.25 7.51111 4.4 7.24444 4.6 7L6.26667 4.96667C6.51111 4.65556 6.81667 4.41667 7.18333 4.25C7.55 4.08333 7.93333 4 8.33333 4H23.6667C24.0667 4 24.45 4.08333 24.8167 4.25C25.1833 4.41667 25.4889 4.65556 25.7333 4.96667L27.4 7C27.6 7.24444 27.75 7.51111 27.85 7.8C27.95 8.08889 28 8.38889 28 8.7V13.9C28 14.2778 27.8722 14.5944 27.6167 14.85C27.3611 15.1056 27.0444 15.2333 26.6667 15.2333C26.2889 15.2333 25.9722 15.1056 25.7167 14.85C25.4611 14.5944 25.3333 14.2778 25.3333 13.9V10.6667H21.3333V15.7667C20.5556 16.2111 19.8778 16.7611 19.3 17.4167C18.7222 18.0722 18.2667 18.8111 17.9333 19.6333L16 18.6667L12.6 20.3667C12.1556 20.5889 11.7222 20.5722 11.3 20.3167C10.8778 20.0611 10.6667 19.6778 10.6667 19.1667V10.6667H6.66667V25.3333H17.0333C17.4111 25.3333 17.7278 25.4611 17.9833 25.7167C18.2389 25.9722 18.3667 26.2889 18.3667 26.6667C18.3667 27.0222 18.2389 27.3333 17.9833 27.6C17.7278 27.8667 17.4111 28 17.0333 28H6.66667ZM24.3833 27.6167C24.1278 27.3611 24 27.0444 24 26.6667V24H21.3333C20.9556 24 20.6389 23.8722 20.3833 23.6167C20.1278 23.3611 20 23.0444 20 22.6667C20 22.2889 20.1278 21.9722 20.3833 21.7167C20.6389 21.4611 20.9556 21.3333 21.3333 21.3333H24V18.6667C24 18.2889 24.1278 17.9722 24.3833 17.7167C24.6389 17.4611 24.9556 17.3333 25.3333 17.3333C25.7111 17.3333 26.0278 17.4611 26.2833 17.7167C26.5389 17.9722 26.6667 18.2889 26.6667 18.6667V21.3333H29.3333C29.7111 21.3333 30.0278 21.4611 30.2833 21.7167C30.5389 21.9722 30.6667 22.2889 30.6667 22.6667C30.6667 23.0444 30.5389 23.3611 30.2833 23.6167C30.0278 23.8722 29.7111 24 29.3333 24H26.6667V26.6667C26.6667 27.0444 26.5389 27.3611 26.2833 27.6167C26.0278 27.8722 25.7111 28 25.3333 28C24.9556 28 24.6389 27.8722 24.3833 27.6167ZM6.66667 10.6667H17.9333H17.3333H17.8H6.66667Z" fill="var(--fill-0, #1C1B1F)"/>
</g>
</g>
</svg>
