<svg preserveAspectRatio="none" width="100%" height="100%" overflow="visible" style="display: block;" viewBox="0 0 10 10" fill="none" xmlns="http://www.w3.org/2000/svg">
<g id="content_copy">
<mask id="mask0_0_14" style="mask-type:alpha" maskUnits="userSpaceOnUse" x="0" y="0" width="10" height="10">
<rect id="Bounding box" width="10" height="10" fill="var(--fill-0, #D9D9D9)"/>
</mask>
<g mask="url(#mask0_0_14)">
<path id="content_copy_2" d="M3.75 7.5C3.52083 7.5 3.32465 7.4184 3.16146 7.25521C2.99826 7.09201 2.91667 6.89583 2.91667 6.66667V1.66667C2.91667 1.4375 2.99826 1.24132 3.16146 1.07813C3.32465 0.914931 3.52083 0.833333 3.75 0.833333H7.5C7.72917 0.833333 7.92535 0.914931 8.08854 1.07813C8.25174 1.24132 8.33333 1.4375 8.33333 1.66667V6.66667C8.33333 6.89583 8.25174 7.09201 8.08854 7.25521C7.92535 7.4184 7.72917 7.5 7.5 7.5H3.75ZM3.75 6.66667H7.5V1.66667H3.75V6.66667ZM2.08333 9.16667C1.85417 9.16667 1.65799 9.08507 1.49479 8.92188C1.3316 8.75868 1.25 8.5625 1.25 8.33333V2.91667C1.25 2.79861 1.28993 2.69965 1.36979 2.61979C1.44965 2.53993 1.54861 2.5 1.66667 2.5C1.78472 2.5 1.88368 2.53993 1.96354 2.61979C2.0434 2.69965 2.08333 2.79861 2.08333 2.91667V8.33333H6.25C6.36806 8.33333 6.46701 8.37326 6.54688 8.45313C6.62674 8.53299 6.66667 8.63194 6.66667 8.75C6.66667 8.86806 6.62674 8.96701 6.54688 9.04687C6.46701 9.12674 6.36806 9.16667 6.25 9.16667H2.08333Z" fill="var(--fill-0, #1C1B1F)"/>
</g>
</g>
</svg>
