<svg preserveAspectRatio="none" width="100%" height="100%" overflow="visible" style="display: block;" viewBox="0 0 32 32" fill="none" xmlns="http://www.w3.org/2000/svg">
<g id="delivery_truck_speed">
<mask id="mask0_0_26" style="mask-type:alpha" maskUnits="userSpaceOnUse" x="0" y="0" width="32" height="32">
<rect id="Bounding box" width="32" height="32" fill="var(--fill-0, #D9D9D9)"/>
</mask>
<g mask="url(#mask0_0_26)">
<path id="delivery_truck_speed_2" d="M6.5 25.5C5.72222 24.7222 5.33333 23.7778 5.33333 22.6667H3.63333C3.25556 22.6667 2.93889 22.5389 2.68333 22.2833C2.42778 22.0278 2.3 21.7111 2.3 21.3333C2.3 20.9556 2.42778 20.6389 2.68333 20.3833C2.93889 20.1278 3.25556 20 3.63333 20H6.36667C6.74444 19.5778 7.18889 19.25 7.7 19.0167C8.21111 18.7833 8.75556 18.6667 9.33333 18.6667C9.91111 18.6667 10.4556 18.7833 10.9667 19.0167C11.4778 19.25 11.9222 19.5778 12.3 20H17.8667L20.6667 8H7.66667C7.28889 8 6.97222 7.87222 6.71667 7.61667C6.46111 7.36111 6.33333 7.04444 6.33333 6.66667C6.33333 6.28889 6.46111 5.97222 6.71667 5.71667C6.97222 5.46111 7.28889 5.33333 7.66667 5.33333H22.3333C22.7778 5.33333 23.1333 5.5 23.4 5.83333C23.6667 6.16667 23.7444 6.54444 23.6333 6.96667L22.7667 10.6667H25.3333C25.7556 10.6667 26.1556 10.7611 26.5333 10.95C26.9111 11.1389 27.2222 11.4 27.4667 11.7333L29.9667 15.0333C30.2111 15.3444 30.3667 15.6833 30.4333 16.05C30.5 16.4167 30.5 16.7889 30.4333 17.1667L29.5333 21.6C29.4667 21.9111 29.3111 22.1667 29.0667 22.3667C28.8222 22.5667 28.5444 22.6667 28.2333 22.6667H26.6667C26.6667 23.7778 26.2778 24.7222 25.5 25.5C24.7222 26.2778 23.7778 26.6667 22.6667 26.6667C21.5556 26.6667 20.6111 26.2778 19.8333 25.5C19.0556 24.7222 18.6667 23.7778 18.6667 22.6667H13.3333C13.3333 23.7778 12.9444 24.7222 12.1667 25.5C11.3889 26.2778 10.4444 26.6667 9.33333 26.6667C8.22222 26.6667 7.27778 26.2778 6.5 25.5ZM21.2333 17.3333H27.6667L27.8 16.6333L25.3333 13.3333H22.1667L21.2333 17.3333ZM17.9333 19.7667L18.15 18.8C18.2944 18.1556 18.4778 17.3667 18.7 16.4333C18.7667 16.1444 18.8333 15.8778 18.9 15.6333C18.9667 15.3889 19.0222 15.1444 19.0667 14.9L19.2833 13.9333C19.4278 13.2889 19.6111 12.5 19.8333 11.5667C20.0556 10.6333 20.2389 9.84444 20.3833 9.2L20.6 8.23333L20.6667 8L17.8667 20L17.9333 19.7667ZM2.33333 17.7667C1.95556 17.7667 1.63889 17.6389 1.38333 17.3833C1.12778 17.1278 1 16.8111 1 16.4333C1 16.0556 1.12778 15.7389 1.38333 15.4833C1.63889 15.2278 1.95556 15.1 2.33333 15.1H7C7.37778 15.1 7.69444 15.2278 7.95 15.4833C8.20556 15.7389 8.33333 16.0556 8.33333 16.4333C8.33333 16.8111 8.20556 17.1278 7.95 17.3833C7.69444 17.6389 7.37778 17.7667 7 17.7667H2.33333ZM5 12.9C4.62222 12.9 4.30556 12.7722 4.05 12.5167C3.79444 12.2611 3.66667 11.9444 3.66667 11.5667C3.66667 11.1889 3.79444 10.8722 4.05 10.6167C4.30556 10.3611 4.62222 10.2333 5 10.2333H11C11.3778 10.2333 11.6944 10.3611 11.95 10.6167C12.2056 10.8722 12.3333 11.1889 12.3333 11.5667C12.3333 11.9444 12.2056 12.2611 11.95 12.5167C11.6944 12.7722 11.3778 12.9 11 12.9H5ZM9.33333 24C9.71111 24 10.0278 23.8722 10.2833 23.6167C10.5389 23.3611 10.6667 23.0444 10.6667 22.6667C10.6667 22.2889 10.5389 21.9722 10.2833 21.7167C10.0278 21.4611 9.71111 21.3333 9.33333 21.3333C8.95556 21.3333 8.63889 21.4611 8.38333 21.7167C8.12778 21.9722 8 22.2889 8 22.6667C8 23.0444 8.12778 23.3611 8.38333 23.6167C8.63889 23.8722 8.95556 24 9.33333 24ZM22.6667 24C23.0444 24 23.3611 23.8722 23.6167 23.6167C23.8722 23.3611 24 23.0444 24 22.6667C24 22.2889 23.8722 21.9722 23.6167 21.7167C23.3611 21.4611 23.0444 21.3333 22.6667 21.3333C22.2889 21.3333 21.9722 21.4611 21.7167 21.7167C21.4611 21.9722 21.3333 22.2889 21.3333 22.6667C21.3333 23.0444 21.4611 23.3611 21.7167 23.6167C21.9722 23.8722 22.2889 24 22.6667 24Z" fill="var(--fill-0, #1C1B1F)"/>
</g>
</g>
</svg>
