<svg preserveAspectRatio="none" width="100%" height="100%" overflow="visible" style="display: block;" viewBox="0 0 32 32" fill="none" xmlns="http://www.w3.org/2000/svg">
<g id="hand_package">
<mask id="mask0_0_20" style="mask-type:alpha" maskUnits="userSpaceOnUse" x="0" y="0" width="32" height="32">
<rect id="Bounding box" width="32" height="32" fill="var(--fill-0, #D9D9D9)"/>
</mask>
<g mask="url(#mask0_0_20)">
<path id="hand_package_2" d="M20 5.33333H12V14.6667H20V5.33333ZM26.6667 5.33333H22.6667V14.6667H26.6667V5.33333ZM19.1667 17.3333H10.6667V25.3333H18.0667C18.5333 25.3333 18.9833 25.2556 19.4167 25.1C19.85 24.9444 20.2444 24.7111 20.6 24.4L26.1333 19.8333C25.9556 19.6556 25.7556 19.5222 25.5333 19.4333C25.3111 19.3444 25.0778 19.2778 24.8333 19.2333C24.4556 19.1667 24.0889 19.1778 23.7333 19.2667C23.3778 19.3556 23.0444 19.5222 22.7333 19.7667L19.8667 22.0667C19.6222 22.2444 19.3611 22.3889 19.0833 22.5C18.8056 22.6111 18.5111 22.6667 18.2 22.6667H14.6667C14.2889 22.6667 13.9722 22.5389 13.7167 22.2833C13.4611 22.0278 13.3333 21.7111 13.3333 21.3333C13.3333 20.9556 13.4611 20.6389 13.7167 20.3833C13.9722 20.1278 14.2889 20 14.6667 20H18.2L19.6667 18.8C19.7778 18.7333 19.8611 18.6444 19.9167 18.5333C19.9722 18.4222 20 18.3 20 18.1667C20 17.9444 19.9167 17.75 19.75 17.5833C19.5833 17.4167 19.3889 17.3333 19.1667 17.3333ZM8 17.3333H5.33333V26.6667H8V17.3333ZM9.33333 17.3333V5.33333C9.33333 4.6 9.59444 3.97222 10.1167 3.45C10.6389 2.92778 11.2667 2.66667 12 2.66667H26.6667C27.4 2.66667 28.0278 2.92778 28.55 3.45C29.0722 3.97222 29.3333 4.6 29.3333 5.33333V14.6667C29.3333 15.4 29.0722 16.0278 28.55 16.55C28.0278 17.0722 27.4 17.3333 26.6667 17.3333H9.33333ZM8 29.3333H5.33333C4.6 29.3333 3.97222 29.0722 3.45 28.55C2.92778 28.0278 2.66667 27.4 2.66667 26.6667V17.3333C2.66667 16.6 2.92778 15.9722 3.45 15.45C3.97222 14.9278 4.6 14.6667 5.33333 14.6667H19.1667C21.0556 14.6667 22.8778 14.9889 24.6333 15.6333C26.3889 16.2778 27.8 17.3667 28.8667 18.9C29.1111 19.2778 29.2 19.6944 29.1333 20.15C29.0667 20.6056 28.8556 20.9889 28.5 21.3L22.3333 26.4667C21.7333 26.9778 21.0667 27.3611 20.3333 27.6167C19.6 27.8722 18.8444 28 18.0667 28H10.3C10.0556 28.4 9.73333 28.7222 9.33333 28.9667C8.93333 29.2111 8.48889 29.3333 8 29.3333Z" fill="var(--fill-0, #1C1B1F)"/>
</g>
</g>
</svg>
